<?xml version="1.0" standalone="no"?>
<!DOCTYPE svg PUBLIC "-//W3C//DTD SVG 1.1//EN" "http://www.w3.org/Graphics/SVG/1.1/DTD/svg11.dtd" >
<svg xmlns="http://www.w3.org/2000/svg">
<metadata>Generated by IcoMoon</metadata>
<defs>
<font id="icomoon" horiz-adv-x="1024">
<font-face units-per-em="1024" ascent="960" descent="-64" />
<missing-glyph horiz-adv-x="1024" />
<glyph unicode="&#x20;" horiz-adv-x="512" d="" />
<glyph unicode="&#xe900;" glyph-name="arrow-right" d="M342.16 851.6l-28.96-28.96 374.64-374.64-374.64-374.64 28.96-28.96 403.6 403.6z" />
<glyph unicode="&#xe901;" glyph-name="arrow-slider-left" d="M237.188 680.114c8.565 0.165 16.388-4.941 19.847-12.765 3.376-7.906 1.647-17.047-4.365-23.141l-168.165-175.165h911.894c7.578 0.083 14.658-3.87 18.447-10.459 3.87-6.588 3.87-14.659 0-21.247-3.789-6.588-10.869-10.541-18.447-10.459h-911.894l168.165-175.164c8.071-8.4 7.741-21.742-0.659-29.813-8.4-8.069-21.741-7.822-29.812 0.66l-216.423 225.4 216.423 225.4c3.871 4.2 9.306 6.588 14.988 6.753z" />
<glyph unicode="&#xe902;" glyph-name="arrow-slider-right" d="M786.811 680.114c-8.565 0.165-16.387-4.941-19.848-12.765-3.376-7.906-1.647-17.047 4.364-23.141l168.165-175.165h-911.893c-7.576 0.083-14.659-3.87-18.447-10.459-3.871-6.588-3.871-14.659 0-21.247 3.788-6.588 10.871-10.541 18.447-10.459h911.893l-168.165-175.164c-8.069-8.4-7.74-21.742 0.66-29.813 8.4-8.069 21.742-7.822 29.813 0.66l216.422 225.4-216.422 225.4c-3.87 4.2-9.306 6.588-14.99 6.753z" />
<glyph unicode="&#xe903;" glyph-name="arrow-up" d="M512 654.88l334.32-350.24h-668.64l334.32 350.24zM512 714.24l-430.080-450.56h860.16l-430.080 450.56z" />
<glyph unicode="&#xe904;" glyph-name="bag" d="M526.24 898.48c-84.288-2.218-169.199-67.383-169.2-179.44v-73.76h-172.72v-397.44c0-86.040 28.52-141.587 66.24-173.12s81.94-38.822 113.36-35.68l-2.080-0.082h314.080c69.645 0 116.958 36.822 143.2 80.56s34.32 93.499 34.32 128.32v397.442h-157.040v73.76c0 59.598-20.764 106.106-53.040 136.4s-74.976 44.149-117.12 43.040zM527.28 857.52c32.453 0.854 64.328-9.782 88-32s40.16-56.146 40.16-106.48v-73.76h-257.44v73.76c0.001 92.102 64.374 136.772 129.28 138.48zM225.28 604.32h131.76v-199.36h40.96v199.36h257.44v-199.36h40.96v199.36h116.080v-356.48c0-27.995-7.609-72.415-28.48-107.2s-52.088-60.72-108.080-60.72l-316.080-0.082c-20.929-2.091-55.324 3.152-83.040 26.322s-51.52 64.392-51.52 141.68z" />
<glyph unicode="&#xe905;" glyph-name="burger" d="M0 768v-42.667h1024v42.667zM0 469.333v-42.667h1024v42.667zM0 170.667v-42.667h1024v42.667z" />
<glyph unicode="&#xe906;" glyph-name="close" d="M104.143 917.857l-62-62 407.857-407.857-407.857-407.857 62-62 407.857 407.857 407.857-407.857 62 62-407.857 407.857 407.857 407.857-62 62-407.857-407.857z" />
<glyph unicode="&#xe907;" glyph-name="count-minus" d="M120.471 487.647v-78.353h782.118v78.353z" />
<glyph unicode="&#xe908;" glyph-name="count-plus" d="M472.353 839.529v-782.118h78.353v782.118zM120.471 487.647v-78.353h782.118v78.353z" />
<glyph unicode="&#xe909;" glyph-name="eye" d="M512 714.24c-273.040 0-486.4-252.801-486.4-252.801-6.72-7.68-6.72-19.198 0-26.878 0 0 213.36-252.801 486.4-252.801s486.4 252.801 486.4 252.801c6.722 7.68 6.722 19.198 0 26.878 0 0-213.361 252.801-486.4 252.801zM512 673.28c53.842 0 105.279-11.12 152.961-28.16 31.998-36.16 51.839-83.44 51.839-135.68 0-113.361-91.439-204.8-204.8-204.8s-204.8 91.439-204.8 204.8c0 52.24 19.2 99.52 51.2 135.68 47.84 17.12 99.598 28.16 153.6 28.16zM290.56 615.040c-15.36-32-24.32-67.839-24.32-105.6 0-135.52 110.24-245.76 245.76-245.76s245.76 110.24 245.76 245.76c0 37.601-8.561 73.6-23.679 105.6 115.679-58.8 198.877-144.082 220.16-167.040-33.28-36-217.522-225.28-442.241-225.28s-408.96 189.28-442.24 225.28c21.28 23.040 104.88 108.24 220.8 167.040zM512 611.84c-56.562 0-102.4-45.84-102.4-102.4 0-56.562 45.838-102.4 102.4-102.4s102.4 45.838 102.4 102.4c0 56.56-45.838 102.4-102.4 102.4z" />
<glyph unicode="&#xe90a;" d="M889.041 63.189l-786.64 726.129 44.199 47.882 786.641-726.129-44.2-47.882z" />
<glyph unicode="&#xe90b;" d="M512 714.258c-273.040 0-486.4-252.798-486.4-252.798-6.72-7.68-6.72-19.202 0-26.882 0 0 213.36-252.801 486.4-252.801s486.4 252.801 486.4 252.801c6.722 7.68 6.722 19.202 0 26.882 0 0-213.361 252.798-486.4 252.798zM512 673.298c53.842 0 105.279-11.12 152.961-28.16 31.998-36.16 51.839-83.44 51.839-135.681 0-113.357-91.439-204.8-204.8-204.8s-204.8 91.443-204.8 204.8c0 52.241 19.2 99.521 51.2 135.681 47.84 17.12 99.598 28.16 153.6 28.16zM290.56 615.058c-15.36-32-24.32-67.84-24.32-105.601 0-135.52 110.24-245.76 245.76-245.76s245.76 110.24 245.76 245.76c0 37.601-8.561 73.601-23.679 105.601 115.679-58.8 198.877-144.079 220.16-167.041-33.28-36-217.522-225.28-442.241-225.28s-408.96 189.28-442.24 225.28c21.28 23.040 104.88 108.241 220.8 167.041zM512 611.858c-56.562 0-102.4-45.84-102.4-102.401 0-56.558 45.838-102.4 102.4-102.4s102.4 45.842 102.4 102.4c0 56.561-45.838 102.401-102.4 102.401z" />
<glyph unicode="&#xe90c;" d="M889.111-2.482l-820.844 757.7 41.042 44.462 820.844-757.7-41.042-44.462z" />
<glyph unicode="&#xe90d;" glyph-name="filter" d="M0 760.889v-56.889h1024v56.889zM170.667 476.444v-56.889h682.667v56.889zM341.333 192v-56.889h341.333v56.889z" />
<glyph unicode="&#xe90e;" glyph-name="heart" d="M513.577 769.37c41.681 54.036 110.285 108.706 211.165 108.71 76.362 0.003 141.648-32.65 187.683-78.533 45.74-45.593 73.765-105.592 73.765-162.012 0-55.196-19.399-106.505-54.702-159.966-35.090-53.133-86.614-109.466-152.302-174.936-121.111-120.717-175.161-167.87-262.676-241.68l-2.933-2.073-2.937 2.073c-87.515 73.81-141.563 120.963-262.677 241.68-65.684 65.47-117.212 121.803-152.3 174.936-35.303 53.461-54.703 104.77-54.703 159.966 0 56.42 28.024 116.418 73.766 162.012 46.033 45.883 111.321 78.537 187.682 78.533 100.882-0.005 169.484-54.675 211.169-108.71zM489.722 734.059c-35.721 51.061-96.483 103.926-187.316 103.93-64.419 0.003-119.799-27.48-159.238-66.791-39.731-39.602-61.985-89.856-61.985-133.663 0-45.031 15.602-88.745 48.078-137.921 32.691-49.504 81.72-103.42 147.145-168.632 109.226-108.868 163.141-157.127 237.172-219.935 74.031 62.808 127.943 111.067 237.171 219.935 65.421 65.212 114.45 119.128 147.141 168.632 32.477 49.177 48.079 92.89 48.079 137.921 0 43.807-22.254 94.061-61.985 133.663-39.44 39.311-94.818 66.794-159.236 66.791-90.833-0.004-151.597-52.87-187.318-103.93-2.011-2.876-4.526-6.607-4.526-6.607l-4.518-7.103c-2.597-4.179-5.022-8.312-7.283-12.367l-7.524-12.033-7.524 12.033c-2.261 4.055-4.69 8.188-7.287 12.367l-4.674 7.103c0 0 0 0-4.37 6.607z" />
<glyph unicode="&#xe90f;" glyph-name="home" d="M510 895.917c-12.336 0-24.662-3.947-34.917-11.833l-445.417-342.583 26-33.833 37.583 28.917v-479.333c0-31.382 25.868-57.25 57.25-57.25h215.667c31.382 0 57.333 25.868 57.333 57.25v323.583c0 8.323 6.259 14.583 14.583 14.583h143.833c8.323 0 14.583-6.26 14.583-14.583v-323.583c0-31.382 25.868-57.25 57.25-57.25h215.667c31.382 0 57.333 25.868 57.333 57.25v479.333l37.583-28.917 26 33.833-445.417 342.583c-10.253 7.888-22.581 11.833-34.917 11.833zM501.083 850.333c5.339 4.106 12.501 4.103 17.833 0l365.167-280.917v-512.167c0-8.323-6.343-14.583-14.667-14.583h-215.667c-8.323 0-14.583 6.26-14.583 14.583v323.583c0 31.382-25.868 57.25-57.25 57.25h-143.833c-31.382 0-57.25-25.868-57.25-57.25v-323.583c0-8.323-6.343-14.583-14.667-14.583h-215.667c-8.324 0-14.583 6.26-14.583 14.583v512.167z" />
<glyph unicode="&#xe910;" glyph-name="mail" d="M128 704h768v-54.746c-9.485-8.703-22.767-20.825-38.763-35.256-33.34-30.084-78.438-70.173-125.504-110.243-47.113-40.105-96.004-80.029-136.986-109.857-20.518-14.938-38.784-27.145-53.692-35.558-7.458-4.207-13.824-7.326-19.038-9.353-5.44-2.121-8.619-2.65-10.018-2.65-2.176 0-7.305 1.165-16.137 5.282-8.371 3.904-18.603 9.749-30.417 17.323-23.599 15.13-52.42 36.45-83.482 60.954-60.032 47.356-127.519 105.873-180.090 152.642-26.264 23.366-48.765 43.763-64.698 58.316-3.36 3.069-6.427 5.878-9.176 8.4v54.746zM875.964 594.638c7.27 6.56 13.982 12.646 20.036 18.153v-366.275l-222.571 174.033c25.101 20.117 51.089 41.749 76.437 63.33 47.334 40.296 92.638 80.571 126.097 110.759zM651.772 403.396c-14.042-10.97-27.644-21.286-40.516-30.656-20.885-15.202-40.119-28.109-56.363-37.274-8.115-4.582-15.735-8.371-22.618-11.051-6.652-2.59-13.675-4.574-20.275-4.574-8.73 0-18.594 3.503-28.062 7.923-9.937 4.634-21.321 11.196-33.66 19.106-22.426 14.379-48.909 33.792-77.037 55.735l-245.241-190.281v-52.326h768v52.429l-244.228 190.967zM351.551 419.759l-223.551-173.449v366.48c14.929-13.58 33.863-30.676 55.292-49.74 48.946-43.544 111.055-97.485 168.259-143.292z" />
<glyph unicode="&#xe911;" glyph-name="ok" d="M131.832 934.56c-61.673 0-112.152-50.479-112.152-112.152v-717.775c0-61.673 50.48-112.153 112.152-112.153h717.776c61.673 0 112.153 50.479 112.153 112.153v717.775c0 61.673-50.479 112.152-112.153 112.152h-717.776zM131.832 889.699h717.776c37.425 0 67.289-29.867 67.289-67.292v-717.775c0-37.425-29.864-67.293-67.289-67.293h-717.776c-37.425 0-67.291 29.868-67.291 67.293v717.775c0 37.425 29.866 67.292 67.291 67.292zM490.721 844.838c-111.24 0-201.875-90.636-201.875-201.874s90.636-201.874 201.875-201.874c111.235 0 201.871 90.636 201.871 201.874s-90.636 201.874-201.871 201.874zM490.721 799.977c87.003 0 157.012-70.011 157.012-157.013s-70.009-157.014-157.012-157.014c-87.004 0-157.014 70.012-157.014 157.014s70.011 157.013 157.014 157.013zM490.721 755.116c-61.678 0-112.154-50.478-112.154-112.152s50.476-112.151 112.154-112.151c61.673 0 112.153 50.477 112.153 112.151s-50.479 112.152-112.153 112.152zM490.721 710.255c37.429 0 67.289-29.862 67.289-67.292s-29.86-67.292-67.289-67.292c-37.429 0-67.293 29.862-67.293 67.292s29.864 67.292 67.293 67.292zM669.069 452.391c-12.976-0.168-26.018-4.043-37.372-11.915h-0.041l-0.045-0.045c-41.46-28.971-90.010-44.204-140.89-44.204-50.754 0-99.217 15.167-140.673 43.987-30.301 21.103-72.622 13.488-93.665-16.822-21.075-30.294-13.464-72.593 16.823-93.667 25.827-17.953 55.080-28.283 83.983-39.166l-93.489-93.487c-26.089-26.087-26.089-69.067 0-95.154 13.043-13.042 30.397-19.714 47.577-19.714s34.534 6.672 47.577 19.714l131.868 131.867 131.867-131.867c13.042-13.042 30.396-19.714 47.575-19.714s34.533 6.672 47.579 19.714c26.087 26.087 26.087 69.067 0 95.154l-91.083 91.124c28.606 10.883 56.447 24.007 82.014 41.837 30.237 21.119 37.81 63.435 16.691 93.708-10.551 15.135-26.427 24.572-43.418 27.603-4.248 0.758-8.552 1.106-12.878 1.049zM674.107 407.446c5.62-0.999 10.854-4.211 14.455-9.376 7.238-10.371 4.801-24.003-5.562-31.236-31.588-22.032-66.322-38.056-102.953-48.103l-37.192-10.207 27.247-27.296 115.921-115.876c8.95-8.946 8.95-22.77 0-31.715-4.497-4.497-10.068-6.574-15.86-6.574-5.788 0-11.362 2.077-15.86 6.574l-163.582 163.582-163.586-163.582c-4.497-4.497-10.070-6.574-15.859-6.574s-11.361 2.077-15.859 6.574c-8.948 8.946-8.948 22.77 0 31.715l143.17 143.172-37.195 10.207c-36.496 10.031-71.081 25.96-102.558 47.841-10.402 7.234-12.84 20.795-5.608 31.191v0.045c7.175 10.33 20.85 12.808 31.193 5.607v-0.045c48.894-33.989 106.562-52.003 166.302-52.003 59.859 0 117.641 18.096 166.564 52.265 5.206 3.609 11.203 4.809 16.822 3.813z" />
<glyph unicode="&#xe912;" glyph-name="phone" d="M324.256 550.392l-17.040 11.358-8.464-12.698 9.744-11.739 15.76 13.079zM392.523 669.856v0zM819.188 21.324v0zM733.856 328.524v0zM614.388 260.256l-13.079-15.761 12.665-10.506 12.988 10.101-12.575 16.167zM324.256 550.392c17.041-11.362 17.041-11.362 17.042-11.358 0 0 0.002 0 0.003 0.004 0.003 0.004 0.007 0.008 0.011 0.016 0.009 0.012 0.023 0.033 0.041 0.061 0.035 0.053 0.087 0.127 0.154 0.229 0.134 0.201 0.331 0.496 0.586 0.881 0.51 0.77 1.255 1.896 2.2 3.33 1.889 2.867 4.583 6.976 7.813 11.956 6.453 9.949 15.080 23.427 23.726 37.478 8.611 13.992 17.4 28.809 24.096 41.362 3.332 6.247 6.325 12.267 8.538 17.524 1.105 2.625 2.139 5.35 2.93 8.008 0.7 2.375 1.61 5.986 1.61 9.972h-40.961c0 1.853 0.374 2.664 0.077 1.664-0.212-0.717-0.644-1.942-1.405-3.75-1.52-3.61-3.861-8.391-6.929-14.143-6.105-11.447-14.382-25.429-22.838-39.17-8.42-13.683-16.86-26.871-23.207-36.655-3.17-4.887-5.81-8.912-7.653-11.711-0.922-1.399-1.644-2.491-2.134-3.23-0.245-0.369-0.432-0.65-0.556-0.838-0.062-0.093-0.109-0.163-0.139-0.209-0.015-0.023-0.027-0.040-0.034-0.050-0.004-0.005-0.006-0.009-0.008-0.011-0.001-0.001-0.001-0.002-0.001-0.002s0 0 17.040-11.358zM413.004 669.856c0 4.521-1.085 8.853-2.023 11.974-1.040 3.465-2.447 7.193-4.046 10.995-3.205 7.62-7.656 16.667-12.875 26.452-10.47 19.629-24.652 43.386-39.821 66.774-15.161 23.375-31.549 46.756-46.484 65.543-7.456 9.379-14.753 17.872-21.514 24.729-6.369 6.461-13.657 12.933-21.092 16.65l-18.319-36.635c1.099-0.549 4.477-2.923 10.241-8.77 5.373-5.45 11.675-12.727 18.62-21.462 13.865-17.442 29.477-39.669 44.183-62.343 14.698-22.661 28.249-45.396 38.046-63.762 4.914-9.214 8.729-17.041 11.258-23.054 1.268-3.015 2.093-5.293 2.57-6.885 0.58-1.935 0.295-1.71 0.295-0.206h40.961zM265.148 892.973c-9.93 4.966-20.6 4.617-29.222 2.962-8.862-1.702-18.002-5.247-26.797-9.546-17.642-8.623-37.046-21.852-55.336-36.118-36.122-28.175-72.306-63.914-85.511-83.721l34.081-22.721c9.551 14.326 41.633 46.854 76.622 74.145 17.266 13.467 34.128 24.771 48.131 31.615 7.027 3.434 12.553 5.356 16.536 6.12 4.223 0.811 4.576-0.070 3.178 0.628l18.319 36.635zM828.346 3.006c4.030 2.011 9.523 6.263 14.221 10.056 5.489 4.428 12.349 10.285 19.968 17.146 15.221 13.701 33.878 31.789 50.987 51.020 16.871 18.964 33.247 40.161 42.865 59.998 4.796 9.888 8.602 20.824 9.097 31.826 0.524 11.616-2.712 23.781-12.345 33.419l-28.963-28.963c0.164-0.164 0.172-0.205 0.201-0.299 0.061-0.172 0.254-0.852 0.188-2.314-0.143-3.211-1.458-8.421-5.034-15.802-7.127-14.705-20.509-32.543-36.614-50.643-15.864-17.834-33.395-34.845-47.788-47.8-7.184-6.472-13.484-11.837-18.285-15.712-5.591-4.51-7.516-5.648-6.816-5.296l18.317-36.635zM953.139 206.471c-5.845 5.841-16.855 13.853-29.544 22.569-13.279 9.126-30.188 20.218-49.16 32.51-38.117 24.695-84.779 54.387-129.217 84.013l-22.721-34.079c44.732-29.827 91.943-59.871 129.663-84.312 18.948-12.272 35.451-23.106 48.239-31.887 13.378-9.196 21.086-15.086 23.777-17.777l28.963 28.963zM745.218 345.563c-5.341 3.559-10.953 4.44-15.012 4.542-4.112 0.102-8.004-0.557-11.268-1.36-6.504-1.597-13.414-4.497-19.943-7.692-13.242-6.472-28.541-15.962-42.631-25.358-14.238-9.49-27.857-19.296-37.876-26.698-5.022-3.711-9.167-6.836-12.067-9.040-1.45-1.106-2.589-1.978-3.371-2.58-0.389-0.303-0.692-0.537-0.901-0.696-0.102-0.082-0.184-0.143-0.238-0.184-0.029-0.025-0.053-0.041-0.066-0.053-0.008-0.004-0.016-0.008-0.020-0.012s-0.004-0.004-0.004-0.004c-0.004-0.004-0.004-0.004 12.567-16.171 12.575-16.167 12.575-16.167 12.575-16.167s0 0 0 0c0 0.004 0.004 0.004 0.008 0.008 0.012 0.008 0.025 0.020 0.049 0.037 0.041 0.033 0.106 0.086 0.197 0.156 0.184 0.139 0.459 0.352 0.819 0.631 0.725 0.557 1.802 1.384 3.187 2.437 2.769 2.105 6.758 5.112 11.604 8.692 9.712 7.176 22.757 16.568 36.258 25.567 13.64 9.093 27.14 17.379 37.9 22.643 5.468 2.671 9.359 4.129 11.723 4.706 1.167 0.291 1.229 0.172 0.487 0.193-0.684 0.016-3.49 0.184-6.697 2.327l22.721 34.079zM68.282 766.55c-5.691-8.536-7.992-19.313-8.723-29.727-0.763-10.87 0.041-23.584 2.351-37.734 4.627-28.341 15.598-64.24 34.646-105.999 38.147-83.63 109.371-192.268 230.285-313.182l28.963 28.963c-118.020 118.018-186.173 222.716-221.982 301.218-17.93 39.307-27.581 71.675-31.488 95.601-1.956 11.984-2.397 21.403-1.916 28.266 0.514 7.32 1.946 9.877 1.944 9.873l-34.081 22.721zM326.841 279.908c120.995-120.996 233.828-194.941 321.429-236.552 43.753-20.783 81.49-33.632 111.030-40.165 14.742-3.256 27.832-5.034 38.842-5.308 10.314-0.258 21.365 0.7 30.204 5.124l-18.317 36.635c0.311 0.156-2.507-1.020-10.863-0.811-7.655 0.193-18.031 1.483-31.023 4.358-25.928 5.73-60.719 17.416-102.302 37.167-83.063 39.457-192.098 110.58-310.037 228.516l-28.963-28.963zM614.388 260.256c13.079 15.761 13.079 15.761 13.079 15.761s0 0 0 0c-0.004 0.004-0.008 0.008-0.012 0.012-0.012 0.008-0.029 0.025-0.053 0.041-0.045 0.041-0.115 0.098-0.209 0.176-0.188 0.156-0.467 0.389-0.836 0.696-0.737 0.614-1.831 1.524-3.244 2.703-2.826 2.363-6.926 5.804-12.018 10.097-10.187 8.593-24.318 20.607-40.108 34.271-31.699 27.439-69.616 61.157-95.715 87.257l-28.963-28.963c27.222-27.222 66.101-61.768 97.874-89.264 15.946-13.804 30.216-25.932 40.497-34.607 5.145-4.338 9.294-7.815 12.161-10.211 1.434-1.2 2.548-2.13 3.305-2.761 0.377-0.315 0.668-0.553 0.864-0.717 0.094-0.082 0.172-0.143 0.221-0.188 0.025-0.020 0.045-0.037 0.057-0.045 0.008-0.008 0.012-0.012 0.016-0.012 0-0.004 0.004-0.004 0.004-0.004s0-0.004 13.079 15.757zM475.271 411.271c-26.1 26.1-59.822 64.016-87.258 95.715-13.665 15.79-25.675 29.921-34.268 40.108-4.295 5.091-7.734 9.193-10.097 12.018-1.181 1.412-2.093 2.506-2.707 3.243-0.307 0.369-0.54 0.649-0.696 0.836-0.077 0.093-0.136 0.163-0.174 0.21-0.019 0.023-0.033 0.040-0.043 0.051-0.005 0.005-0.008 0.009-0.010 0.012-0.001 0.001-0.002 0.002-0.002 0.003s0 0-15.761-13.076c-15.76-13.079-15.76-13.083-15.759-13.083s0.002 0 0.003-0.004 0.007-0.008 0.013-0.016 0.027-0.033 0.048-0.057c0.042-0.049 0.104-0.123 0.186-0.221 0.163-0.197 0.403-0.487 0.719-0.864 0.63-0.758 1.559-1.872 2.757-3.305 2.397-2.867 5.876-7.016 10.215-12.157 8.676-10.285 20.801-24.556 34.605-40.501 27.499-31.773 62.044-70.652 89.266-97.874l28.963 28.963z" />
<glyph unicode="&#xe913;" glyph-name="phone-filled" d="M402.288 648.939c0-15.272-61.089-106.906-61.089-106.906s74.464-89.737 122.178-137.451c47.716-47.714 137.451-122.177 137.451-122.177s91.634 71.27 106.906 61.086c79.802-53.197 167.997-106.906 183.268-122.177 34.15-34.15-95.004-146.772-106.906-152.72-30.548-15.272-213.811 30.543-427.625 244.354-213.812 213.812-249.447 381.807-229.084 412.352s122.178 122.179 152.723 106.906c30.545-15.273 122.178-161.669 122.178-183.267z" />
<glyph unicode="&#xe914;" glyph-name="plus" d="M464.154 960v-464.154h-464.154v-94.462h464.154v-464.154h94.462v464.154h464.154v94.462h-464.154v464.154z" />
<glyph unicode="&#xe915;" glyph-name="receipt" d="M71.7 939.5v-983h642.5l248.4 248.4v734.6zM133.1 878.1h768v-629.8h-276.5v-230.4h-491.5zM286.7 690.7v-61.5h460.8v61.5zM286.7 506.4v-61.5h460.8v61.5zM286.7 322v-61.4h230.4v61.4zM686.1 186.9h171.6l-169-169h-2.6z" />
<glyph unicode="&#xe916;" glyph-name="ruble" d="M320 896v-448h-128v-64h128v-64h-128v-64h128v-192h64v192h192v64h-192v64h192c141.001 0 256 114.999 256 256s-114.999 256-256 256h-256zM384 832h192c106.5 0 192-85.5 192-192s-85.5-192-192-192h-192v384z" />
<glyph unicode="&#xe917;" glyph-name="search" d="M727.81 532.943c0-160.166-123.933-288.42-274.907-288.42v-40.96c175.305 0 315.867 148.341 315.867 329.38h-40.96zM452.903 244.523c-150.97 0-274.903 128.254-274.903 288.42h-40.96c0-181.039 140.564-329.38 315.863-329.38v40.96zM178 532.943c0 160.161 123.933 288.417 274.903 288.417v40.96c-175.299 0-315.863-148.341-315.863-329.377h40.96zM452.903 821.36c150.974 0 274.907-128.256 274.907-288.417h40.96c0 181.036-140.562 329.377-315.867 329.377v-40.96zM615.334 287.113l236.306-247.12 29.606 28.307-236.311 247.12-29.602-28.307z" />
<glyph unicode="&#xe918;" d="M764.588 550.427c0-177.203-143.651-320.854-320.856-320.854v-40.96c199.823 0 361.816 161.989 361.816 361.814h-40.96zM443.732 229.573c-177.201 0-320.852 143.651-320.852 320.854h-40.96c0-199.825 161.989-361.814 361.812-361.814v40.96zM122.88 550.427c0 177.202 143.651 320.853 320.852 320.853v40.96c-199.823 0-361.812-161.989-361.812-361.813h40.96zM443.732 871.28c177.205 0 320.856-143.651 320.856-320.853h40.96c0 199.824-161.993 361.813-361.816 361.813v-40.96zM634.053 279.945l273.064-273.068 28.967 28.963-273.068 273.068-28.963-28.963z" />
<glyph unicode="&#xe919;" d="M430.080 755.2v-184.32h-184.32v-40.96h184.32v-184.32h40.96v184.32h184.32v40.96h-184.32v184.32z" />
<glyph unicode="&#xe91a;" glyph-name="share" d="M837.081 935.619c-43.11 0-84.451-17.125-114.937-47.607-30.481-30.482-47.606-71.825-47.606-114.933 0.073-11.425 1.351-22.811 3.813-33.969l-369.050-184.524c-15.221 17.524-34.019 31.585-55.128 41.236s-44.042 14.669-67.253 14.716c-43.108 0-84.451-17.125-114.933-47.607s-47.607-71.824-47.607-114.933c0-43.11 17.125-84.451 47.607-114.932s71.825-47.606 114.933-47.606c23.218 0.024 46.162 5.022 67.286 14.663 21.124 9.635 39.937 23.689 55.175 41.209l368.809-184.447c-2.409-11.162-3.633-22.548-3.652-33.968 0-43.106 17.125-84.451 47.606-114.932 30.486-30.481 71.826-47.606 114.937-47.606 43.106 0 84.451 17.125 114.932 47.606s47.606 71.826 47.606 114.932c0 43.11-17.125 84.451-47.606 114.937-30.481 30.481-71.826 47.606-114.932 47.606-23.22-0.029-46.163-5.027-67.287-14.668-21.124-9.635-39.936-23.689-55.174-41.209l-368.811 184.447c2.407 11.162 3.63 22.548 3.651 33.968-0.078 11.401-1.355 22.757-3.81 33.889l369.048 184.524c15.228-17.509 34.031-31.555 55.14-41.193s44.037-14.643 67.243-14.681c43.106 0 84.451 17.125 114.932 47.607s47.606 71.825 47.606 114.933c0 43.108-17.125 84.451-47.606 114.933s-71.826 47.607-114.932 47.607z" />
<glyph unicode="&#xe91b;" glyph-name="star" d="M512 960l144.815-367.185 367.185-144.815-367.185-144.815-144.815-367.185-144.815 367.185-367.185 144.815 367.185 144.815 144.815 367.185z" />
<glyph unicode="&#xe91c;" glyph-name="telegram" d="M908.853 837.38c-9.974-0.437-19.681-3.214-28.439-6.72-8.667-3.483-58.561-24.778-132.239-56.28s-169.46-72.523-264.401-113.2c-189.885-81.354-376.48-161.398-376.48-161.398l1.36 0.516c0 0-11.262-3.764-22.68-11.719-5.709-3.977-11.851-9.114-16.88-16.601-5.029-7.483-8.705-18.096-7.32-29.319 4.866-39.416 45.72-50.598 45.72-50.598l0.16-0.082 182.32-62.398c4.649-15.507 55.298-184.562 66.44-220.361 6.153-19.792 11.912-31.212 17.92-39.002 3.006-3.895 6.157-6.914 9.64-9.118 1.384-0.877 2.84-1.536 4.28-2.122 0.031-0.012 0.050 0.016 0.080 0 0.177-0.078 0.343-0.082 0.52-0.16l-0.48 0.123c0.335-0.135 0.665-0.365 1-0.483 0.65-0.225 1.048-0.217 1.88-0.397 20.881-7.291 38.162 6.238 38.162 6.238l0.717 0.561 112.001 103.879 181.76-141.718 2.281-1.040c31.814-14.127 60.584-6.246 76.517 6.717 15.933 12.968 22.2 29.68 22.2 29.68l0.68 1.761 133.562 696.121c3.416 15.574 3.903 29.035 0.68 41.2s-11.055 22.739-20.881 28.6c-9.826 5.861-20.103 7.758-30.081 7.32zM909.935 795.74c4.051 0.188 7.053-0.276 7.999-0.84s1.372-0.49 2.281-3.92c0.909-3.43 1.401-10.654-1.081-21.96l-0.078-0.24-132.801-692.078c-0.315-0.7-3.084-7.102-9.4-12.243-6.447-5.243-13.615-9.339-32.641-1.36l-204.481 159.281-59.441 44.601 334.041 392.999c2.568 3.012 4.207 6.703 4.719 10.627 0.516 3.924-0.119 7.912-1.823 11.484-1.708 3.571-4.411 6.572-7.782 8.639-3.375 2.067-7.279 3.113-11.231 3.011-3.867-0.101-7.627-1.293-10.842-3.44l-483.36-322.241-182.6 62.521c0 0-18.132 10.088-19 17.121-0.048 0.389-0.262 0.037 0.68 1.438 0.942 1.405 3.311 3.772 6.28 5.841 5.939 4.137 12.72 6.64 12.72 6.64l0.68 0.242 0.68 0.279c0 0 186.605 80.052 376.479 161.4 94.941 40.675 190.702 81.666 264.36 113.16 73.642 31.486 126.857 54.149 131.363 55.96 5.128 2.054 10.228 2.893 14.279 3.080zM688.415 575.1l-253.44-298.161c-0.397-0.475-0.77-0.971-1.118-1.479-0.406-0.553-0.778-1.13-1.122-1.72-1.421-2.417-2.335-5.1-2.679-7.881 0-0.053 0-0.106 0-0.16l-33.001-148.398c-0.549 1.602-0.933 2.187-1.52 4.080v0.037c-10.482 33.681-58.268 193.114-64.88 215.163l357.76 238.519zM463.696 228.221l45.519-34.161-66.879-62.001 21.361 96.162z" />
<glyph unicode="&#xe91d;" glyph-name="user" d="M527.52 898.56c-120.751 0-219.040-98.291-219.040-219.040s98.289-219.12 219.040-219.12c120.747 0 219.040 98.372 219.040 219.12s-98.293 219.040-219.040 219.040zM527.52 857.6c98.61 0 178.080-79.467 178.080-178.080s-79.47-178.16-178.080-178.16c-98.614 0-178.080 79.548-178.080 178.16s79.465 178.080 178.080 178.080zM515.12 413.44c-165.391 0-330.8-82.882-330.8-248.72v-126.32h661.6v126.32c0 165.838-165.409 248.72-330.8 248.72zM515.12 371.6c144.911 0 289.84-68.934 289.84-206.88v-85.36h-579.68v85.36c0 137.946 144.929 206.88 289.84 206.88z" />
<glyph unicode="&#xe91e;" glyph-name="user-filled" d="M719.337 663.801c0-112.173-90.931-203.109-203.106-203.109s-203.108 90.935-203.108 203.109c0 112.173 90.934 203.108 203.108 203.108s203.106-90.934 203.106-203.108zM820.89 29.091h-634.708v108.218c0 310.691 634.708 310.691 634.708 0v-108.218z" />
<glyph unicode="&#xe91f;" glyph-name="vk" d="M512 960c-282.522 0-512-229.478-512-512s229.478-512 512-512c282.522 0 512 229.478 512 512s-229.478 512-512 512zM512 915.478c258.433 0 467.476-209.043 467.476-467.478 0-258.433-209.043-467.476-467.476-467.476-258.435 0-467.478 209.043-467.478 467.476 0 258.435 209.043 467.478 467.478 467.478zM289.478 603.826l-89.913-0.087c0 0-5.131 0.348-11.305-0.522-6.174-0.783-15.391-1.13-24.782-11.826h-0.087v-0.087c-8.348-9.565-8.087-20.695-7.043-26.783s3.391-10.696 3.391-10.696v-0.087c0.87-2.087 66.087-161.912 148.348-247.739 58-60.609 119.998-80.609 175.217-80.609h28.697c9.392 0 17.826 0.434 27.132 5.304 9.388 4.784 17.392 18.088 17.392 28.525 0 11.129 0.258 21.91 1.651 27.996 1.393 5.566 0.868 4.174 1.393 4.264 0.52-0.176 1.479-0.348 3.301-1.221 4.002-1.823 10.174-5.825 16.957-11.043 13.566-10.609 29.651-25.911 47.739-37.736 25.825-17.134 53.916-16.089 53.916-16.089l93.475 0.086c0 0 14.262 0.348 28.783 9.306 7.307 4.436 16.003 12.607 18.87 24.957 2.957 12.259-0.782 25.129-7.913 36.52-2.609 4.088-15.303 22.524-65.913 67.482-13.042 11.563-22 19.739-25.563 24.17-1.217 1.479-1.307 1.393-1.565 1.479 0.258 0.696 3.215 6.869 11.043 17.043 8.172 10.609 20.521 25.391 36.434 45.654 20.349 25.911 34.607 50.782 43.565 71.737 4.522 10.523 7.651 20.001 9.564 28.697 1.913 8.609 3.391 15.739 0.61 26-2.089 7.652-7.827 14.435-13.39 18.087-5.566 3.565-10.785 4.957-15.479 5.739-9.392 1.739-17.654 1.478-25.305 1.478-16.089 0-87.74-0.609-93.651-0.609-6.959 0-18.002-2.87-23.134-5.826-12.694-7.218-16.695-17.218-16.695-17.218l-1.217-2.174-0.696-2.348c0 0-16.347-52.781-33.128-79.999-19.739-32.002-34.435-44.696-40.956-48.349-0.61-0.348-0.262-0.172-0.782-0.434-0.438 1.479-1.13 3.564-1.569 7.303-0.868 8.438-0.344 20.349-0.344 31.916 0 31.912 2.433 51.823-0.262 70.694-1.307 9.391-4.698 19.913-12.435 28s-17.654 12.087-27.652 14.348h-0.086c-10.351 2.348-21.479 4.435-48.435 4.696-34.173 0.348-56.521-0.783-76.348-9.565l-0.174-0.174-0.174-0.087c-7.826-3.652-14-7.826-19.479-13.478-2.696-2.782-5.913-4.869-8.174-13.826-1.043-4.522-1.217-12.956 3.826-19.826 5.13-6.869 12.174-8.958 16.348-9.478-0.696 0.086 3.304-0.782 6.435-2.347 3.217-1.565 5.913-3.826 6.609-4.698v-0.086c-0.261 0.434 2.696-7.041 3.478-13.914 0.87-6.869 0.696-12.345 0.696-12.345l-0.087-1.307 0.174-1.389c0 0 1.391-15.131 0.609-30.695-0.348-7.827-1.304-15.741-2.609-20.521-0.087-0.262-0.087-0.176-0.174-0.348-5.565 3.826-18.435 17.392-36.174 46.694-16.348 27.042-31.652 75.652-31.652 75.652l-0.348 1.13-0.435 1.043c0 0-2.782 10.783-15.478 19.739-11.826 8.261-23.043 9.479-23.043 9.479l-2 0.348zM284.261 559.304c1.305-0.435 3.913-1.391 4.435-1.652l-0.521 1.565 0.696-1.565c0-0.087 0.087-0.087 0.087-0.087v-0.087c-1.043 0.87-0.087 0.087 0-0.174 0.609-2.087 14.174-48.868 35.391-83.999 19.391-31.912 33.652-49.828 49.217-60.522 15.652-10.609 36.608-9.564 47.217-4.002 14.262 7.393 18.174 19.567 20.955 29.655 2.785 10.084 3.74 20.345 4.174 30.085 0.872 18.522-0.606 33.653-0.782 35.217 0.090 0.782 0.262 7.999-0.868 17.826s-3.215 22-11.911 34.262c9.736 1.478 15.217 3.652 34.869 3.478 25.215-0.261 29.041-1.304 38.867-3.565 5.394-1.217 6.001-2.261 5.48-1.739-0.434 0.522 0 0.87 0.606-3.391 1.221-8.696-0.172-30.872-0.172-64.52 0-9.478-0.958-22.872 0.61-36.872 1.651-14 5.997-31.912 22.868-42.349 9.65-5.997 28.086-8.086 45.478 1.655 17.392 9.65 35.217 28.172 57.131 63.824 21.651 35.131 34.607 81.306 36 86.262 0 0 0.262 0.087 0.434 0.261 0.434-0.087-0.086-0.087 0.524-0.087 8.258 0 78.606 0.522 93.651 0.522 4.174 0 6.001-0.261 9.044-0.348-1.221-4.782-2.957-10.437-6.001-17.564-7.217-16.957-19.653-38.957-37.655-61.829-15.389-19.739-27.476-33.997-36.692-45.912-9.134-12.001-16.351-21.389-19.395-35.041s2.785-28.959 10.609-38.699c7.827-9.826 17.568-17.998 30.609-29.475 48.955-43.565 57.045-56.697 57.741-57.913 0.868-1.393 0.348 0 0.606-0.696-2.695-0.868-6.001-1.827-6.349-1.913h-90.259c0 0-16.519 0.52-28.869 8.696v0.086h-0.086c-12.96 8.52-28.697 23.13-44.872 35.652-8.086 6.263-16.347 12.173-25.911 16.523-9.478 4.26-21.651 7.303-34.349 3.564-18.436-5.566-28.697-23.13-31.998-37.044-2.351-9.998-2.003-18.694-2.089-27.39-0.61-0.086 0-0.086-0.782-0.086h-28.697c-45.216 0-92.26 13.824-143.043 66.867-66 68.956-124.869 202.26-133.739 222.523h77.739zM672.608 559.131c-0.434-0.087 0.696-0.174 1.651-0.261-0.086-0.087 0 0.087-0.172 0 0 0.348-0.958 0.348-1.479 0.261z" />
</font>
</defs>
</svg>
