<svg width="34" height="17" viewBox="0 0 34 17" fill="none" xmlns="http://www.w3.org/2000/svg">
<path d="M7.87539 0.793097C8.15976 0.787629 8.41953 0.95716 8.53437 1.21693C8.64648 1.47943 8.58906 1.78294 8.38945 1.98528L2.80586 7.8013H33.0836C33.3352 7.79856 33.5703 7.92981 33.6961 8.14856C33.8246 8.36731 33.8246 8.63528 33.6961 8.85403C33.5703 9.07278 33.3352 9.20403 33.0836 9.2013H2.80586L8.38945 15.0173C8.65742 15.2962 8.64648 15.7392 8.36758 16.0072C8.08867 16.2751 7.6457 16.2669 7.37773 15.9853L0.191795 8.5013L7.37773 1.01732C7.50625 0.877863 7.68672 0.798566 7.87539 0.793097Z" fill="#4C748B"/>
</svg>
