<svg width="34" height="17" viewBox="0 0 34 17" fill="none" xmlns="http://www.w3.org/2000/svg">
<path d="M26.1246 0.793097C25.8402 0.787629 25.5805 0.95716 25.4656 1.21693C25.3535 1.47943 25.4109 1.78294 25.6105 1.98528L31.1941 7.8013H0.916406C0.664844 7.79856 0.429687 7.92981 0.303906 8.14856C0.175391 8.36731 0.175391 8.63528 0.303906 8.85403C0.429687 9.07278 0.664844 9.20403 0.916406 9.2013H31.1941L25.6105 15.0173C25.3426 15.2962 25.3535 15.7392 25.6324 16.0072C25.9113 16.2751 26.3543 16.2669 26.6223 15.9853L33.8082 8.5013L26.6223 1.01732C26.4938 0.877863 26.3133 0.798566 26.1246 0.793097Z" fill="#4C748B"/>
</svg>
