<svg width="25" height="25" viewBox="0 0 25 25" fill="none" xmlns="http://www.w3.org/2000/svg">
<path fill-rule="evenodd" clip-rule="evenodd" d="M21.7051 21.8948L2.50002 4.16705L3.5791 2.99805L22.7842 20.7258L21.7051 21.8948Z" fill="#645F53"/>
<path d="M12.5 5.99957C5.83398 5.99957 0.625 12.1714 0.625 12.1714C0.460937 12.3589 0.460937 12.6402 0.625 12.8277C0.625 12.8277 5.83398 18.9996 12.5 18.9996C19.166 18.9996 24.375 12.8277 24.375 12.8277C24.5391 12.6402 24.5391 12.3589 24.375 12.1714C24.375 12.1714 19.166 5.99957 12.5 5.99957ZM12.5 6.99957C13.8145 6.99957 15.0703 7.27105 16.2344 7.68707C17.0156 8.56988 17.5 9.72418 17.5 10.9996C17.5 13.7671 15.2676 15.9996 12.5 15.9996C9.73242 15.9996 7.5 13.7671 7.5 10.9996C7.5 9.72418 7.96875 8.56988 8.75 7.68707C9.91797 7.2691 11.1816 6.99957 12.5 6.99957ZM7.09375 8.42144C6.71875 9.20269 6.5 10.0777 6.5 10.9996C6.5 14.3082 9.19141 16.9996 12.5 16.9996C15.8086 16.9996 18.5 14.3082 18.5 10.9996C18.5 10.0816 18.291 9.20269 17.9219 8.42144C20.7461 9.85699 22.7773 11.939 23.2969 12.4996C22.4844 13.3785 17.9863 17.9996 12.5 17.9996C7.01367 17.9996 2.51562 13.3785 1.70312 12.4996C2.22266 11.9371 4.26367 9.85699 7.09375 8.42144ZM12.5 8.49957C11.1191 8.49957 10 9.61871 10 10.9996C10 12.3804 11.1191 13.4996 12.5 13.4996C13.8809 13.4996 15 12.3804 15 10.9996C15 9.61871 13.8809 8.49957 12.5 8.49957Z" fill="#645F53"/>
<path fill-rule="evenodd" clip-rule="evenodd" d="M21.7068 23.4981L1.66667 4.99957L2.66867 3.91406L22.7088 22.4126L21.7068 23.4981Z" fill="#E8E0D5"/>
</svg>
