<svg width="25" height="25" viewBox="0 0 25 25" fill="none" xmlns="http://www.w3.org/2000/svg">
<path d="M12.5 6C5.83398 6 0.625 12.1719 0.625 12.1719C0.460938 12.3594 0.460938 12.6406 0.625 12.8281C0.625 12.8281 5.83398 19 12.5 19C19.166 19 24.375 12.8281 24.375 12.8281C24.5391 12.6406 24.5391 12.3594 24.375 12.1719C24.375 12.1719 19.166 6 12.5 6ZM12.5 7C13.8145 7 15.0703 7.27148 16.2344 7.6875C17.0156 8.57031 17.5 9.72461 17.5 11C17.5 13.7676 15.2676 16 12.5 16C9.73242 16 7.5 13.7676 7.5 11C7.5 9.72461 7.96875 8.57031 8.75 7.6875C9.91797 7.26953 11.1816 7 12.5 7ZM7.09375 8.42188C6.71875 9.20312 6.5 10.0781 6.5 11C6.5 14.3086 9.19141 17 12.5 17C15.8086 17 18.5 14.3086 18.5 11C18.5 10.082 18.291 9.20312 17.9219 8.42188C20.7461 9.85742 22.7773 11.9395 23.2969 12.5C22.4844 13.3789 17.9863 18 12.5 18C7.01367 18 2.51562 13.3789 1.70312 12.5C2.22266 11.9375 4.26367 9.85742 7.09375 8.42188ZM12.5 8.5C11.1191 8.5 10 9.61914 10 11C10 12.3809 11.1191 13.5 12.5 13.5C13.8809 13.5 15 12.3809 15 11C15 9.61914 13.8809 8.5 12.5 8.5Z" fill="#645F53"/>
</svg>
