<svg width="25" height="25" viewBox="0 0 25 25" fill="none" xmlns="http://www.w3.org/2000/svg">
<path fill-rule="evenodd" clip-rule="evenodd" d="M12.5385 4.65406C11.5208 3.33483 9.84595 2.00011 7.383 2C5.51874 1.99992 3.92478 2.79713 2.80093 3.91732C1.68418 5.03044 1 6.49524 1 7.87268C1 9.22024 1.47363 10.4729 2.33552 11.7781C3.19218 13.0753 4.45017 14.4506 6.05379 16.049C9.01067 18.9962 10.3302 20.1474 12.4668 21.9494L12.5385 22L12.6101 21.9494C14.7467 20.1474 16.0663 18.9962 19.0231 16.049C20.6268 14.4506 21.8847 13.0753 22.7414 11.7781C23.6033 10.4729 24.0769 9.22024 24.0769 7.87268C24.0769 6.49524 23.3927 5.03044 22.276 3.91732C21.1521 2.79713 19.5582 1.99992 17.6939 2C15.231 2.00011 13.5561 3.33483 12.5385 4.65406ZM11.9561 5.51614C11.084 4.26954 9.60057 2.97888 7.38296 2.97878C5.81023 2.97871 4.45819 3.64967 3.49531 4.60942C2.52532 5.57626 1.982 6.80318 1.982 7.87268C1.982 8.97207 2.3629 10.0393 3.15577 11.2399C3.95388 12.4485 5.15088 13.7648 6.74817 15.3569C9.41482 18.0148 10.7311 19.193 12.5385 20.7264C14.3459 19.193 15.6621 18.0148 18.3288 15.3569C19.926 13.7648 21.123 12.4485 21.9211 11.2399C22.714 10.0393 23.0949 8.97207 23.0949 7.87268C23.0949 6.80318 22.5516 5.57626 21.5816 4.60942C20.6187 3.64967 19.2667 2.97871 17.694 2.97878C15.4764 2.97888 13.9929 4.26954 13.1208 5.51614C13.0717 5.58635 13.0103 5.67745 13.0103 5.67745L12.9 5.85086C12.8366 5.95289 12.7774 6.05379 12.7222 6.15279L12.5385 6.44657L12.3548 6.15279C12.2996 6.05379 12.2403 5.95289 12.1769 5.85086L12.0628 5.67745C12.0628 5.67745 12.0628 5.67745 11.9561 5.51614Z" fill="#645F53"/>
</svg>
