<svg width="24" height="22" viewBox="0 0 24 22" fill="none" xmlns="http://www.w3.org/2000/svg">
<path d="M3 5H21V6.2831C20.7777 6.48708 20.4664 6.77119 20.0915 7.10942C19.3101 7.81452 18.2531 8.75411 17.15 9.69323C16.0458 10.6332 14.8999 11.5689 13.9394 12.268C13.4585 12.6181 13.0304 12.9042 12.681 13.1014C12.5062 13.2 12.357 13.2731 12.2348 13.3206C12.1073 13.3703 12.0328 13.3827 12 13.3827C11.949 13.3827 11.8288 13.3554 11.6218 13.2589C11.4256 13.1674 11.1858 13.0304 10.9089 12.8529C10.3558 12.4983 9.68031 11.9986 8.95228 11.4243C7.54528 10.3144 5.96355 8.9429 4.73142 7.84676C4.11585 7.29912 3.58848 6.82107 3.21507 6.47998C3.13632 6.40805 3.06443 6.34221 3 6.28311V5Z" fill="#5B7E95"/>
<path d="M20.5304 7.56318C20.7008 7.40943 20.8581 7.2668 21 7.13772V15.7223L15.7835 11.6434C16.3718 11.1719 16.9809 10.6649 17.575 10.1591C18.6844 9.21466 19.7462 8.27072 20.5304 7.56318Z" fill="#5B7E95"/>
<path d="M15.2759 12.0454C14.9468 12.3025 14.628 12.5443 14.3263 12.7639C13.8368 13.1202 13.386 13.4227 13.0053 13.6375C12.8151 13.7449 12.6365 13.8337 12.4752 13.8965C12.3193 13.9572 12.1547 14.0037 12 14.0037C11.7954 14.0037 11.5642 13.9216 11.3423 13.818C11.1094 13.7094 10.8426 13.5556 10.5534 13.3702C10.0278 13.0332 9.4071 12.5782 8.74784 12.0639L3 16.5236V17.75H21V16.5212L15.2759 12.0454Z" fill="#5B7E95"/>
<path d="M8.23947 11.6619L3 15.7271V7.13772C3.3499 7.45601 3.79366 7.85668 4.29591 8.3035C5.44309 9.32407 6.89876 10.5883 8.23947 11.6619Z" fill="#5B7E95"/>
</svg>
