<svg width="25" height="25" viewBox="0 0 25 25" fill="none" xmlns="http://www.w3.org/2000/svg">
<path d="M3.21856 0.621094C1.71288 0.621094 0.480469 1.8535 0.480469 3.35919V20.883C0.480469 22.3887 1.71288 23.6211 3.21856 23.6211H20.7424C22.2481 23.6211 23.4805 22.3887 23.4805 20.883V3.35919C23.4805 1.8535 22.2481 0.621094 20.7424 0.621094H3.21856ZM3.21856 1.71633H20.7424C21.6561 1.71633 22.3852 2.4455 22.3852 3.35919V20.883C22.3852 21.7967 21.6561 22.5259 20.7424 22.5259H3.21856C2.30487 22.5259 1.57571 21.7967 1.57571 20.883V3.35919C1.57571 2.4455 2.30487 1.71633 3.21856 1.71633ZM11.9805 2.81157C9.26469 2.81157 7.0519 5.02437 7.0519 7.74014C7.0519 10.4559 9.26469 12.6687 11.9805 12.6687C14.6962 12.6687 16.909 10.4559 16.909 7.74014C16.909 5.02437 14.6962 2.81157 11.9805 2.81157ZM11.9805 3.90681C14.1046 3.90681 15.8138 5.61606 15.8138 7.74014C15.8138 9.86422 14.1046 11.5735 11.9805 11.5735C9.85639 11.5735 8.14714 9.86422 8.14714 7.74014C8.14714 5.61606 9.85639 3.90681 11.9805 3.90681ZM11.9805 5.00205C10.4747 5.00205 9.24237 6.23442 9.24237 7.74014C9.24237 9.24586 10.4747 10.4782 11.9805 10.4782C13.4862 10.4782 14.7186 9.24586 14.7186 7.74014C14.7186 6.23442 13.4862 5.00205 11.9805 5.00205ZM11.9805 6.09728C12.8943 6.09728 13.6233 6.82633 13.6233 7.74014C13.6233 8.65395 12.8943 9.383 11.9805 9.383C11.0667 9.383 10.3376 8.65395 10.3376 7.74014C10.3376 6.82633 11.0667 6.09728 11.9805 6.09728ZM16.3347 12.3928C16.0179 12.3969 15.6995 12.4915 15.4223 12.6837H15.4213L15.4202 12.6848C14.408 13.3921 13.2227 13.764 11.9805 13.764C10.7414 13.764 9.5582 13.3937 8.54609 12.6901C7.80631 12.1749 6.7731 12.3608 6.25935 13.1008C5.74483 13.8404 5.93064 14.8731 6.67006 15.3876C7.30061 15.8259 8.01478 16.0781 8.72042 16.3438L6.43797 18.6262C5.80104 19.2631 5.80104 20.3124 6.43797 20.9493C6.7564 21.2677 7.18009 21.4306 7.59952 21.4306C8.01894 21.4306 8.44263 21.2677 8.76107 20.9493L11.9805 17.7299L15.1999 20.9493C15.5183 21.2677 15.942 21.4306 16.3614 21.4306C16.7808 21.4306 17.2045 21.2677 17.523 20.9493C18.1599 20.3124 18.1599 19.2631 17.523 18.6262L15.2993 16.4015C15.9977 16.1358 16.6774 15.8154 17.3016 15.3801C18.0398 14.8645 18.2247 13.8314 17.7091 13.0923C17.4515 12.7228 17.0639 12.4924 16.6491 12.4184C16.5454 12.3999 16.4403 12.3914 16.3347 12.3928ZM16.4577 13.4901C16.5949 13.5145 16.7227 13.5929 16.8106 13.719C16.9873 13.9722 16.9278 14.305 16.6748 14.4816C15.9036 15.0195 15.0556 15.4107 14.1613 15.656L13.2533 15.9052L13.9185 16.5716L16.7486 19.4006C16.9671 19.619 16.9671 19.9565 16.7486 20.1749C16.6388 20.2847 16.5028 20.3354 16.3614 20.3354C16.2201 20.3354 16.084 20.2847 15.9742 20.1749L11.9805 16.1812L7.9867 20.1749C7.8769 20.2847 7.74085 20.3354 7.59952 20.3354C7.45818 20.3354 7.32214 20.2847 7.21233 20.1749C6.99387 19.9565 6.99387 19.619 7.21233 19.4006L10.7077 15.9052L9.79962 15.656C8.90861 15.4111 8.06425 15.0222 7.29576 14.488C7.0418 14.3114 6.98228 13.9803 7.15885 13.7265V13.7254C7.33401 13.4732 7.66788 13.4127 7.92039 13.5885V13.5896C9.11408 14.4194 10.522 14.8592 11.9805 14.8592C13.4419 14.8592 14.8526 14.4174 16.047 13.5832C16.1741 13.4951 16.3205 13.4658 16.4577 13.4901Z" fill="#645F53"/>
</svg>
