<svg width="22" height="22" viewBox="0 0 22 22" fill="none" xmlns="http://www.w3.org/2000/svg">
<path d="M8.6429 6.68296C8.6429 7.01108 7.33044 8.97976 7.33044 8.97976C7.33044 8.97976 8.93026 10.9077 9.95536 11.9328C10.9805 12.9579 12.9084 14.5577 12.9084 14.5577C12.9084 14.5577 14.8771 13.0265 15.2052 13.2453C16.9197 14.3882 18.8145 15.5421 19.1426 15.8702C19.8763 16.6039 17.1015 19.0235 16.8458 19.1513C16.1895 19.4794 12.2522 18.4951 7.65855 13.9015C3.06494 9.30788 2.29934 5.69861 2.73683 5.04238C3.17431 4.38615 5.36175 2.41745 6.01798 2.74558C6.67421 3.07371 8.6429 6.21894 8.6429 6.68296Z" fill="#5B7E95"/>
</svg>
