<svg width="25" height="25" viewBox="0 0 25 25" fill="none" xmlns="http://www.w3.org/2000/svg">
<path d="M7.9164 10.0002L7.50038 9.7229L7.29374 10.0329L7.53163 10.3195L7.9164 10.0002ZM9.58307 7.0836L9.08307 7.0836L9.58307 7.0836ZM19.9997 22.9169L19.7761 22.4697L19.9997 22.9169ZM17.9164 15.4169L18.1938 15.0009L17.9164 15.4169ZM14.9997 17.0836L14.6804 17.4684L14.9896 17.7249L15.3067 17.4783L14.9997 17.0836ZM7.9164 10.0002C8.33243 10.2776 8.33244 10.2776 8.33247 10.2775C8.33248 10.2775 8.33251 10.2775 8.33254 10.2774C8.33261 10.2773 8.3327 10.2772 8.33281 10.277C8.33304 10.2767 8.33337 10.2762 8.3338 10.2755C8.33466 10.2742 8.33592 10.2724 8.33755 10.2699C8.34082 10.265 8.34562 10.2578 8.35185 10.2484C8.36431 10.2296 8.38248 10.2021 8.40555 10.1671C8.45168 10.0971 8.51744 9.99679 8.5963 9.87521C8.75385 9.63232 8.96447 9.30325 9.17556 8.96022C9.38578 8.61862 9.60037 8.25688 9.76383 7.9504C9.84517 7.79788 9.91824 7.65091 9.97227 7.52258C9.99925 7.4585 10.0245 7.39196 10.0438 7.32706C10.0609 7.26907 10.0831 7.18091 10.0831 7.0836L9.08307 7.0836C9.08307 7.03836 9.09219 7.01856 9.08495 7.04297C9.07977 7.06048 9.06923 7.09037 9.05064 7.13452C9.01353 7.22266 8.95638 7.33937 8.88148 7.47981C8.73243 7.75927 8.53036 8.10064 8.32391 8.43612C8.11834 8.77017 7.91229 9.09214 7.75734 9.33102C7.67995 9.45033 7.6155 9.5486 7.57049 9.61693C7.54798 9.65109 7.53035 9.67775 7.51839 9.69578C7.51241 9.7048 7.50785 9.71166 7.50482 9.71623C7.5033 9.71851 7.50216 9.72022 7.50142 9.72134C7.50105 9.7219 7.50077 9.72231 7.5006 9.72257C7.50051 9.7227 7.50045 9.72279 7.50041 9.72285C7.50039 9.72287 7.50039 9.72289 7.50038 9.7229C7.50037 9.7229 7.50038 9.7229 7.9164 10.0002ZM10.0831 7.0836C10.0831 6.97322 10.0566 6.86747 10.0337 6.79127C10.0083 6.70667 9.97395 6.61565 9.93492 6.52283C9.85668 6.33679 9.748 6.11591 9.62059 5.87704C9.36497 5.39781 9.01874 4.81781 8.6484 4.24681C8.27826 3.67612 7.87815 3.10531 7.51353 2.64663C7.33151 2.41766 7.15334 2.21031 6.98829 2.04289C6.8328 1.88516 6.65487 1.72715 6.47335 1.63639L6.02612 2.53081C6.05294 2.54422 6.13542 2.60217 6.27615 2.74493C6.40733 2.87799 6.56119 3.05564 6.73073 3.26891C7.06924 3.69473 7.45038 4.23739 7.80941 4.79096C8.16824 5.34421 8.49908 5.89926 8.73826 6.34766C8.85824 6.57261 8.95138 6.7637 9.01312 6.91049C9.04407 6.9841 9.06422 7.03972 9.07587 7.07857C9.09004 7.12581 9.08307 7.12032 9.08307 7.0836L10.0831 7.0836ZM6.47335 1.63639C6.23091 1.51516 5.97043 1.52366 5.75993 1.56408C5.54357 1.60563 5.32042 1.69219 5.1057 1.79713C4.67499 2.00765 4.20125 2.33063 3.75472 2.67892C2.87283 3.36679 1.98943 4.23933 1.66705 4.7229L2.4991 5.2776C2.73227 4.92784 3.51554 4.13371 4.36975 3.46742C4.79128 3.13863 5.20295 2.86265 5.54482 2.69556C5.71638 2.61171 5.8513 2.56481 5.94852 2.54614C6.05162 2.52634 6.06023 2.54786 6.02612 2.53081L6.47335 1.63639ZM20.2233 23.3641C20.3217 23.315 20.4558 23.2112 20.5705 23.1186C20.7045 23.0105 20.872 22.8675 21.058 22.7C21.4296 22.3655 21.8851 21.9239 22.3028 21.4544C22.7147 20.9914 23.1145 20.4739 23.3493 19.9896C23.4664 19.7482 23.5593 19.4812 23.5714 19.2126C23.5842 18.929 23.5052 18.632 23.27 18.3967L22.5629 19.1038C22.5669 19.1078 22.5671 19.1088 22.5678 19.1111C22.5693 19.1153 22.574 19.1319 22.5724 19.1676C22.5689 19.246 22.5368 19.3732 22.4495 19.5534C22.2755 19.9124 21.9488 20.3479 21.5556 20.7898C21.1683 21.2252 20.7403 21.6405 20.3889 21.9568C20.2135 22.1148 20.0597 22.2458 19.9425 22.3404C19.806 22.4505 19.759 22.4783 19.7761 22.4697L20.2233 23.3641ZM23.27 18.3967C23.1273 18.2541 22.8585 18.0585 22.5487 17.8457C22.2245 17.6229 21.8117 17.3521 21.3485 17.052C20.4179 16.4491 19.2787 15.7242 18.1938 15.0009L17.6391 15.8329C18.7312 16.5611 19.8838 17.2946 20.8047 17.8913C21.2673 18.1909 21.6702 18.4554 21.9824 18.6698C22.309 18.8943 22.4972 19.0381 22.5629 19.1038L23.27 18.3967ZM18.1938 15.0009C18.0634 14.914 17.9264 14.8925 17.8273 14.89C17.7269 14.8875 17.6319 14.9036 17.5522 14.9232C17.3934 14.9622 17.2247 15.033 17.0653 15.111C16.742 15.269 16.3685 15.5007 16.0245 15.7301C15.6769 15.9618 15.3444 16.2012 15.0998 16.3819C14.9772 16.4725 14.876 16.5488 14.8052 16.6026C14.7698 16.6296 14.742 16.6509 14.7229 16.6656C14.7134 16.673 14.706 16.6787 14.7009 16.6826C14.6984 16.6846 14.6964 16.6861 14.6951 16.6871C14.6944 16.6877 14.6938 16.6881 14.6935 16.6884C14.6933 16.6885 14.6931 16.6886 14.693 16.6887C14.6929 16.6888 14.6929 16.6888 14.6929 16.6888C14.6928 16.6889 14.6928 16.6889 14.9997 17.0836C15.3067 17.4783 15.3067 17.4783 15.3067 17.4783C15.3067 17.4783 15.3067 17.4783 15.3067 17.4783C15.3067 17.4782 15.3068 17.4782 15.3069 17.4781C15.3072 17.4779 15.3075 17.4776 15.3081 17.4772C15.3091 17.4764 15.3107 17.4751 15.3129 17.4734C15.3174 17.47 15.3241 17.4648 15.3329 17.458C15.3506 17.4444 15.3769 17.4242 15.4107 17.3985C15.4783 17.3471 15.5757 17.2737 15.694 17.1863C15.9311 17.0111 16.2496 16.7818 16.5792 16.5621C16.9122 16.3401 17.2418 16.1378 17.5045 16.0093C17.638 15.9441 17.733 15.9085 17.7907 15.8944C17.8192 15.8873 17.8207 15.8902 17.8026 15.8897C17.7859 15.8893 17.7174 15.8852 17.6391 15.8329L18.1938 15.0009ZM1.66705 4.7229C1.52811 4.93131 1.47193 5.1944 1.45409 5.44865C1.43547 5.71402 1.45508 6.02443 1.51148 6.36988C1.62445 7.06181 1.89229 7.93824 2.35733 8.95775C3.28865 10.9995 5.02753 13.6518 7.97952 16.6038L8.68663 15.8967C5.80528 13.0154 4.14138 10.4593 3.26715 8.54275C2.82941 7.5831 2.59378 6.79286 2.49841 6.20875C2.45065 5.91617 2.43988 5.68622 2.45164 5.51865C2.46418 5.33995 2.49915 5.27752 2.4991 5.2776L1.66705 4.7229ZM7.97952 16.6038C10.9335 19.5578 13.6882 21.3631 15.8269 22.379C16.8951 22.8864 17.8164 23.2001 18.5376 23.3596C18.8975 23.4391 19.2171 23.4825 19.4859 23.4892C19.7377 23.4955 20.0075 23.4721 20.2233 23.3641L19.7761 22.4697C19.7837 22.4659 19.7149 22.4946 19.5109 22.4895C19.324 22.4848 19.0707 22.4533 18.7535 22.3831C18.1205 22.2432 17.2711 21.9579 16.2559 21.4757C14.228 20.5124 11.566 18.776 8.68663 15.8967L7.97952 16.6038ZM14.9997 17.0836C15.319 16.6988 15.319 16.6988 15.319 16.6988C15.319 16.6988 15.319 16.6988 15.319 16.6988C15.3189 16.6987 15.3188 16.6986 15.3187 16.6985C15.3184 16.6983 15.318 16.6979 15.3174 16.6975C15.3163 16.6965 15.3146 16.6951 15.3123 16.6932C15.3077 16.6894 15.3009 16.6837 15.2919 16.6762C15.2739 16.6612 15.2472 16.639 15.2127 16.6102C15.1437 16.5525 15.0436 16.4685 14.9193 16.3637C14.6706 16.1539 14.3256 15.8606 13.9401 15.527C13.1662 14.8571 12.2405 14.0339 11.6033 13.3967L10.8962 14.1038C11.5608 14.7684 12.51 15.6118 13.2857 16.2831C13.675 16.6201 14.0234 16.9162 14.2744 17.128C14.4 17.2339 14.5013 17.3188 14.5713 17.3773C14.6063 17.4066 14.6335 17.4293 14.652 17.4447C14.6612 17.4524 14.6683 17.4582 14.6731 17.4622C14.6754 17.4642 14.6773 17.4657 14.6785 17.4668C14.6791 17.4673 14.6796 17.4677 14.6799 17.4679C14.6801 17.4681 14.6802 17.4682 14.6803 17.4682C14.6803 17.4683 14.6804 17.4683 14.6804 17.4683C14.6804 17.4683 14.6804 17.4684 14.9997 17.0836ZM11.6033 13.3967C10.9661 12.7595 10.1428 11.8338 9.47297 11.0599C9.13935 10.6744 8.84613 10.3294 8.63634 10.0807C8.53147 9.95641 8.44751 9.85626 8.38984 9.78728C8.36101 9.7528 8.33875 9.72611 8.32375 9.7081C8.31625 9.69909 8.31056 9.69225 8.30677 9.68769C8.30488 9.68541 8.30346 9.6837 8.30252 9.68257C8.30205 9.68201 8.30171 9.68159 8.30148 9.68132C8.30137 9.68119 8.30129 9.68109 8.30124 9.68103C8.30121 9.681 8.3012 9.68098 8.30119 9.68096C8.30118 9.68095 8.30118 9.68096 7.9164 10.0002C7.53163 10.3195 7.53164 10.3196 7.53167 10.3196C7.53168 10.3196 7.53172 10.3196 7.53175 10.3197C7.53183 10.3198 7.53193 10.3199 7.53206 10.3201C7.53233 10.3204 7.53273 10.3209 7.53324 10.3215C7.53427 10.3227 7.53578 10.3245 7.53777 10.3269C7.54174 10.3317 7.54762 10.3388 7.55532 10.348C7.57071 10.3665 7.59338 10.3937 7.62264 10.4287C7.68116 10.4987 7.76609 10.6 7.87202 10.7255C8.08383 10.9766 8.37986 11.325 8.71686 11.7143C9.38822 12.49 10.2316 13.4392 10.8962 14.1038L11.6033 13.3967Z" fill="#645F53"/>
</svg>
