<svg width="25" height="25" viewBox="0 0 25 25" fill="none" xmlns="http://www.w3.org/2000/svg">
<path d="M17.7688 10.4262C17.7688 14.3365 14.7431 17.4677 11.0572 17.4677V18.4677C15.3371 18.4677 18.7688 14.8461 18.7688 10.4262H17.7688ZM11.0572 17.4677C7.37141 17.4677 4.3457 14.3365 4.3457 10.4262H3.3457C3.3457 14.8461 6.77743 18.4677 11.0572 18.4677V17.4677ZM4.3457 10.4262C4.3457 6.51603 7.37141 3.38477 11.0572 3.38477V2.38477C6.77743 2.38477 3.3457 6.00637 3.3457 10.4262H4.3457ZM11.0572 3.38477C14.7431 3.38477 17.7688 6.51603 17.7688 10.4262H18.7688C18.7688 6.00637 15.3371 2.38477 11.0572 2.38477V3.38477ZM15.0228 16.4279L20.792 22.4611L21.5148 21.77L15.7455 15.7368L15.0228 16.4279Z" fill="#645F53"/>
</svg>
