<?xml version="1.0" encoding="UTF-8" standalone="no"?>
<svg
   width="25"
   height="25"
   viewBox="0 0 25 25"
   fill="none"
   version="1.1"
   id="svg6"
   sodipodi:docname="search-plus.svg"
   inkscape:version="1.2.1 (9c6d41e410, 2022-07-14)"
   xmlns:inkscape="http://www.inkscape.org/namespaces/inkscape"
   xmlns:sodipodi="http://sodipodi.sourceforge.net/DTD/sodipodi-0.dtd"
   xmlns="http://www.w3.org/2000/svg"
   xmlns:svg="http://www.w3.org/2000/svg">
  <defs
     id="defs10" />
  <sodipodi:namedview
     id="namedview8"
     pagecolor="#ffffff"
     bordercolor="#000000"
     borderopacity="0.25"
     inkscape:showpageshadow="2"
     inkscape:pageopacity="0.0"
     inkscape:pagecheckerboard="0"
     inkscape:deskcolor="#d1d1d1"
     showgrid="false"
     inkscape:zoom="33.48"
     inkscape:cx="12.485066"
     inkscape:cy="12.514934"
     inkscape:window-width="1920"
     inkscape:window-height="1017"
     inkscape:window-x="-8"
     inkscape:window-y="-8"
     inkscape:window-maximized="1"
     inkscape:current-layer="svg6" />
  <path
     d="M18.6667 9.99935C18.6667 14.3256 15.1596 17.8327 10.8333 17.8327V18.8327C15.7118 18.8327 19.6667 14.8779 19.6667 9.99935H18.6667ZM10.8333 17.8327C6.5071 17.8327 3 14.3256 3 9.99935H2C2 14.8779 5.95482 18.8327 10.8333 18.8327V17.8327ZM3 9.99935C3 5.67312 6.5071 2.16602 10.8333 2.16602V1.16602C5.95482 1.16602 2 5.12083 2 9.99935H3ZM10.8333 2.16602C15.1596 2.16602 18.6667 5.67312 18.6667 9.99935H19.6667C19.6667 5.12083 15.7118 1.16602 10.8333 1.16602V2.16602ZM15.4798 16.6029L22.1464 23.2696L22.8536 22.5625L16.1869 15.8958L15.4798 16.6029Z"
     fill="#645F53"
     id="path2" />
  <path
     style="color:#000000;fill:#4c748b;-inkscape-stroke:none"
     d="M 10.5,5 V 9.5 H 6 v 1 h 4.5 V 15 h 1 V 10.5 H 16 v -1 H 11.5 V 5 Z"
     id="path4" />
</svg>
