<svg width="25" height="25" viewBox="0 0 25 25" fill="none" xmlns="http://www.w3.org/2000/svg">
<path d="M22.1888 2.99366C21.9453 3.00434 21.7083 3.07212 21.4945 3.15772C21.2829 3.24275 20.0648 3.76266 18.266 4.53174C16.4672 5.30082 14.1288 6.30233 11.8109 7.29542C7.17504 9.28159 2.6195 11.2358 2.6195 11.2358L2.6527 11.2232C2.6527 11.2232 2.37775 11.3151 2.09899 11.5093C1.95961 11.6064 1.80966 11.7318 1.68688 11.9146C1.5641 12.0973 1.47435 12.3564 1.50817 12.6304C1.62698 13.5927 2.62438 13.8657 2.62438 13.8657L2.62829 13.8677L7.07946 15.3911C7.19295 15.7697 8.42952 19.897 8.70153 20.771C8.85176 21.2542 8.99236 21.533 9.13903 21.7232C9.21242 21.8183 9.28934 21.892 9.37438 21.9458C9.40817 21.9672 9.44371 21.9833 9.47887 21.9976C9.47962 21.9979 9.48008 21.9972 9.48083 21.9976C9.48515 21.9995 9.48921 21.9996 9.49352 22.0015L9.4818 21.9985C9.48997 22.0018 9.49804 22.0074 9.50622 22.0103C9.52209 22.0158 9.53181 22.0156 9.55212 22.02C10.0619 22.198 10.4838 21.8677 10.4838 21.8677L10.5013 21.854L13.2357 19.3179L17.6732 22.7778L17.7289 22.8032C18.5056 23.1481 19.208 22.9557 19.597 22.6392C19.986 22.3226 20.139 21.9146 20.139 21.9146L20.1556 21.8716L23.4164 4.87647C23.4998 4.49625 23.5117 4.1676 23.433 3.87061C23.3543 3.57363 23.1631 3.31546 22.9232 3.17237C22.6833 3.02928 22.4324 2.98297 22.1888 2.99366ZM22.2152 4.01026C22.3141 4.00568 22.3874 4.01699 22.4105 4.03077C22.4336 4.04455 22.444 4.04274 22.4662 4.12647C22.4884 4.21021 22.5004 4.38657 22.4398 4.6626L22.4379 4.66846L19.1957 21.5649C19.188 21.582 19.1204 21.7383 18.9662 21.8638C18.8088 21.9918 18.6338 22.0918 18.1693 21.897L13.3168 18.1128L13.18 18.0054L13.1771 18.0083L11.7259 16.9194L19.8812 7.32471C19.9439 7.25118 19.9839 7.16107 19.9964 7.06527C20.009 6.96947 19.9935 6.8721 19.9519 6.78491C19.9102 6.69773 19.8442 6.62447 19.7619 6.57399C19.6795 6.52352 19.5842 6.49799 19.4877 6.50049C19.3933 6.50295 19.3015 6.53206 19.223 6.58448L7.42223 14.4517L2.96423 12.9253C2.96423 12.9253 2.52155 12.679 2.50036 12.5073C2.49918 12.4978 2.49396 12.5064 2.51696 12.4722C2.53996 12.4379 2.59779 12.3801 2.67028 12.3296C2.81527 12.2286 2.98083 12.1675 2.98083 12.1675L2.99743 12.1616L3.01403 12.1548C3.01403 12.1548 7.56981 10.2004 12.2054 8.21436C14.5233 7.22132 16.8612 6.22056 18.6595 5.45167C20.4574 4.68298 21.7566 4.12968 21.8666 4.08546C21.9918 4.03531 22.1163 4.01484 22.2152 4.01026ZM16.807 9.39698L10.6224 16.6733L10.6195 16.6763C10.6098 16.6879 10.6007 16.7 10.5922 16.7124C10.5823 16.7259 10.5732 16.74 10.5648 16.7544C10.5301 16.8134 10.5078 16.8789 10.4994 16.9468C10.4994 16.9481 10.4994 16.9494 10.4994 16.9507L9.69372 20.5737C9.68032 20.5346 9.67094 20.5203 9.65661 20.4741V20.4732C9.40071 19.6509 8.23404 15.7585 8.07262 15.2202L16.807 9.39698ZM11.3207 17.8657L12.432 18.6997L10.7992 20.2134L11.3207 17.8657Z" fill="#645F53"/>
</svg>
