<?xml version="1.0" encoding="UTF-8" standalone="no"?>
<svg
   width="25"
   height="25"
   viewBox="0 0 25 25"
   fill="none"
   version="1.1"
   id="svg16"
   sodipodi:docname="user.svg"
   inkscape:version="1.2.1 (9c6d41e410, 2022-07-14)"
   xmlns:inkscape="http://www.inkscape.org/namespaces/inkscape"
   xmlns:sodipodi="http://sodipodi.sourceforge.net/DTD/sodipodi-0.dtd"
   xmlns="http://www.w3.org/2000/svg"
   xmlns:svg="http://www.w3.org/2000/svg">
  <defs
     id="defs20" />
  <sodipodi:namedview
     id="namedview18"
     pagecolor="#ffffff"
     bordercolor="#000000"
     borderopacity="0.25"
     inkscape:showpageshadow="2"
     inkscape:pageopacity="0.0"
     inkscape:pagecheckerboard="0"
     inkscape:deskcolor="#d1d1d1"
     showgrid="false"
     inkscape:zoom="33.48"
     inkscape:cx="12.485066"
     inkscape:cy="12.514934"
     inkscape:window-width="1920"
     inkscape:window-height="1017"
     inkscape:window-x="-8"
     inkscape:window-y="-8"
     inkscape:window-maximized="1"
     inkscape:current-layer="svg16" />
  <path
     style="color:#000000;fill:#645f53;-inkscape-stroke:none"
     d="M 12.878906,1.5 C 9.9308948,1.5 7.53125,3.8996923 7.53125,6.8476562 c 0,2.947955 2.3996411,5.3496098 5.347656,5.3496098 2.947925,0 5.347656,-2.4016573 5.347656,-5.3496098 C 18.226562,3.8996948 15.826828,1.5 12.878906,1.5 Z m 0,1 c 2.407473,0 4.347656,1.9401231 4.347656,4.3476562 0,2.4075222 -1.940186,4.3496098 -4.347656,4.3496098 -2.407579,0 -4.347656,-1.9420901 -4.347656,-4.3496098 C 8.53125,4.4401256 10.471323,2.5 12.878906,2.5 Z"
     id="path12" />
  <path
     style="color:#000000;fill:#645f53;-inkscape-stroke:none"
     d="M 12.576172,13.34375 C 8.5383009,13.34375 4.5,15.367233 4.5,19.416016 V 22.5 H 20.652344 V 22 19.416016 c 0,-4.048783 -4.038301,-6.072266 -8.076172,-6.072266 z m 0,1.021484 c 3.537871,0 7.076172,1.682971 7.076172,5.050782 V 21.5 H 5.5 v -2.083984 c 0,-3.367811 3.5383004,-5.050782 7.076172,-5.050782 z"
     id="path14" />
</svg>
