<svg width="25" height="25" viewBox="0 0 25 25" fill="none" xmlns="http://www.w3.org/2000/svg">
<path d="M12.5 0C5.6025 0 0 5.6025 0 12.5C0 19.3975 5.6025 25 12.5 25C19.3975 25 25 19.3975 25 12.5C25 5.6025 19.3975 0 12.5 0ZM12.5 1.08696C18.8094 1.08696 23.913 6.19056 23.913 12.5C23.913 18.8094 18.8094 23.913 12.5 23.913C6.19056 23.913 1.08696 18.8094 1.08696 12.5C1.08696 6.19056 6.19056 1.08696 12.5 1.08696ZM7.06734 8.69565L4.8722 8.69777C4.8722 8.69777 4.74694 8.68928 4.59621 8.71051C4.44548 8.72962 4.22045 8.73811 3.99117 8.99924H3.98905V9.00136C3.78524 9.23488 3.79161 9.50662 3.81709 9.65523C3.84256 9.80384 3.89988 9.91636 3.89988 9.91636V9.91848C3.92111 9.96943 5.51333 13.8714 7.52165 15.9668C8.93767 17.4465 10.4513 17.9348 11.7994 17.9348H12.5C12.7293 17.9348 12.9352 17.9242 13.1624 17.8053C13.3916 17.6885 13.587 17.3637 13.587 17.1089C13.587 16.8372 13.5933 16.574 13.6273 16.4254C13.6613 16.2895 13.6485 16.3235 13.6613 16.3213C13.674 16.3256 13.6974 16.3298 13.7419 16.3511C13.8396 16.3956 13.9903 16.4933 14.1559 16.6207C14.4871 16.8797 14.8798 17.2533 15.3214 17.542C15.9519 17.9603 16.6377 17.9348 16.6377 17.9348H18.8965L18.9198 17.9327C18.9198 17.9327 19.268 17.9242 19.6225 17.7055C19.8009 17.5972 20.0132 17.3977 20.0832 17.0962C20.1554 16.7969 20.0641 16.4827 19.89 16.2046C19.8263 16.1048 19.5164 15.6547 18.2808 14.5571C17.9624 14.2748 17.7437 14.0752 17.6567 13.967C17.627 13.9309 17.6248 13.933 17.6185 13.9309C17.6248 13.9139 17.697 13.7632 17.8881 13.5148C18.0876 13.2558 18.3891 12.8949 18.7776 12.4002C19.2744 11.7676 19.6225 11.1604 19.8412 10.6488C19.9516 10.3919 20.028 10.1605 20.0747 9.9482C20.1214 9.73803 20.1575 9.56394 20.0896 9.31343C20.0386 9.12661 19.8985 8.96102 19.7627 8.87186C19.6268 8.78482 19.4994 8.75085 19.3848 8.73174C19.1555 8.68928 18.9538 8.69565 18.767 8.69565C18.3742 8.69565 16.6249 8.71051 16.4806 8.71051C16.3107 8.71051 16.0411 8.78057 15.9158 8.85275C15.6059 9.02896 15.5082 9.2731 15.5082 9.2731L15.4785 9.32617L15.4615 9.38349C15.4615 9.38349 15.0624 10.6721 14.6527 11.3366C14.1708 12.1179 13.812 12.4278 13.6528 12.517C13.6379 12.5255 13.6464 12.5212 13.6337 12.5276C13.623 12.4915 13.6061 12.4406 13.5954 12.3493C13.5742 12.1433 13.587 11.8525 13.587 11.5701C13.587 10.791 13.6464 10.3049 13.5806 9.84417C13.5487 9.61489 13.4659 9.35802 13.277 9.16058C13.0881 8.96315 12.846 8.86549 12.6019 8.81029H12.5998C12.3471 8.75297 12.0754 8.70202 11.4173 8.69565C10.583 8.68716 10.0374 8.71476 9.55333 8.92918L9.54908 8.93342L9.54484 8.93555C9.35377 9.02471 9.20304 9.12661 9.06929 9.26461C9.00348 9.33254 8.92493 9.38349 8.86973 9.60216C8.84426 9.71255 8.84001 9.91848 8.96315 10.0862C9.0884 10.2539 9.26036 10.3049 9.36226 10.3176C9.34528 10.3155 9.44293 10.3367 9.51936 10.3749C9.59791 10.4131 9.66372 10.4683 9.68071 10.4896V10.4917C9.67434 10.4811 9.74652 10.6636 9.76562 10.8314C9.78685 10.9991 9.78261 11.1328 9.78261 11.1328L9.78049 11.1647L9.78473 11.1986C9.78473 11.1986 9.8187 11.568 9.79959 11.948C9.7911 12.1391 9.76775 12.3323 9.7359 12.449C9.73378 12.4554 9.73378 12.4533 9.73166 12.4575C9.59579 12.3641 9.28159 12.0329 8.84851 11.3175C8.44939 10.6573 8.07575 9.47053 8.07575 9.47053L8.06726 9.44293L8.05664 9.41746C8.05664 9.41746 7.98871 9.15421 7.67875 8.93555C7.39003 8.73386 7.11617 8.70414 7.11617 8.70414L7.06734 8.69565ZM6.93996 9.78261C6.97181 9.79322 7.0355 9.81658 7.04823 9.82294L7.0355 9.78473L7.05248 9.82294C7.05248 9.82507 7.0546 9.82507 7.0546 9.82507V9.82719C7.02913 9.80596 7.05248 9.82507 7.0546 9.83144C7.06946 9.88239 7.40065 11.0245 7.91865 11.8822C8.39207 12.6613 8.74023 13.0987 9.12024 13.3598C9.50238 13.6188 10.014 13.5933 10.273 13.4575C10.6212 13.277 10.7167 12.9798 10.7846 12.7335C10.8526 12.4873 10.8759 12.2368 10.8865 11.999C10.9078 11.5468 10.8717 11.1774 10.8674 11.1392C10.8696 11.1201 10.8738 10.9439 10.8462 10.704C10.8186 10.4641 10.7677 10.1669 10.5554 9.86753C10.7931 9.83144 10.9269 9.77836 11.4067 9.78261C12.0223 9.78898 12.1157 9.81445 12.3556 9.86965C12.4873 9.89937 12.5021 9.92485 12.4894 9.91211C12.4788 9.89937 12.4894 9.89088 12.5042 9.9949C12.534 10.2072 12.5 10.7486 12.5 11.5701C12.5 11.8015 12.4766 12.1285 12.5149 12.4703C12.5552 12.8121 12.6613 13.2494 13.0732 13.5042C13.3088 13.6506 13.7589 13.7016 14.1835 13.4638C14.6081 13.2282 15.0433 12.776 15.5783 11.9056C16.1069 11.0479 16.4232 9.9206 16.4572 9.79959C16.4572 9.79959 16.4636 9.79747 16.4678 9.79322C16.4784 9.79535 16.4657 9.79535 16.4806 9.79535C16.6822 9.79535 18.3997 9.78261 18.767 9.78261C18.8689 9.78261 18.9135 9.78898 18.9878 9.7911C18.958 9.90786 18.9156 10.0459 18.8413 10.2199C18.6651 10.6339 18.3615 11.171 17.922 11.7294C17.5463 12.2113 17.2512 12.5594 17.0262 12.8503C16.8032 13.1433 16.627 13.3725 16.5527 13.7058C16.4784 14.0391 16.6207 14.4128 16.8117 14.6506C17.0028 14.8905 17.2406 15.09 17.559 15.3702C18.7542 16.4338 18.9517 16.7544 18.9687 16.7841C18.9899 16.8181 18.9772 16.7841 18.9835 16.8011C18.9177 16.8223 18.837 16.8457 18.8285 16.8478H16.6249C16.6249 16.8478 16.2216 16.8351 15.9201 16.6355V16.6334H15.918C15.6016 16.4254 15.2174 16.0687 14.8225 15.763C14.6251 15.6101 14.4234 15.4658 14.1899 15.3596C13.9585 15.2556 13.6613 15.1813 13.3513 15.2726C12.9012 15.4085 12.6507 15.8373 12.5701 16.177C12.5127 16.4211 12.5212 16.6334 12.5191 16.8457C12.5042 16.8478 12.5191 16.8478 12.5 16.8478H11.7994C10.6955 16.8478 9.54696 16.5103 8.30715 15.2153C6.69582 13.5318 5.25858 10.2773 5.04203 9.78261H6.93996ZM16.4211 9.78685C16.4105 9.78898 16.4381 9.7911 16.4614 9.79322C16.4593 9.79535 16.4614 9.7911 16.4572 9.79322C16.4572 9.78473 16.4338 9.78473 16.4211 9.78685Z" fill="#645F53"/>
</svg>
